PathFileType	4	(x/y/z)	S06_M20_T22
DataRate	CameraRate	NumFrames	NumMarkers	Units	OrigDataRate	OrigDataStartFrame	OrigNumFrames
240	240	7	51	mm	240	320	511
Frame#	Time	Sternum			R.Acromium			L.Acromium			Top.Head			R.ASIS			L.ASIS			R.PSIS			L.PSIS			R.Great.Tro			L.Great.Tro			R.Iliac.Crest			L.Iliac.Crest			V.Sacral			R.Thigh.Upper.Post			R.Thigh.Lower.Ant			R.Thigh.Lower.Post			R.Thigh.Upper.Ant			R.Knee.Lat			R.Knee.Med			R.Shank.Upper.Post			R.Shank.Lower.Ant			R.Shank.Lower.Post			R.Shank.Upper.Ant			R.Ankle.Lat			R.Ankle.Med			R.Heel.Upper			R.Heel.Med			R.Heel.Lat			R.Toe.Lat			R.Toe.Med			R.Toe.Tip			L.Thigh.Upper.Post			L.Thigh.Lower.Ant			L.Thigh.Lower.Post			L.Thigh.Upper.Ant			L.Knee.Lat			L.Knee.Med			L.Shank.Upper.Post			L.Shank.Lower.Ant			L.Shank.Lower.Post			L.Shank.Upper.Ant			L.Ankle.Lat			L.Ankle.Med			L.Heel.Upper			L.Heel.Med			L.Heel.Lat			L.Toe.Lat			L.Toe.Med			L.Toe.Tip			Cervical.Spine			Back			
		X1	Y1	Z1	X2	Y2	Z2	X3	Y3	Z3	X4	Y4	Z4	X5	Y5	Z5	X6	Y6	Z6	X7	Y7	Z7	X8	Y8	Z8	X9	Y9	Z9	X10	Y10	Z10	X11	Y11	Z11	X12	Y12	Z12	X13	Y13	Z13	X14	Y14	Z14	X15	Y15	Z15	X16	Y16	Z16	X17	Y17	Z17	X18	Y18	Z18	X19	Y19	Z19	X20	Y20	Z20	X21	Y21	Z21	X22	Y22	Z22	X23	Y23	Z23	X24	Y24	Z24	X25	Y25	Z25	X26	Y26	Z26	X27	Y27	Z27	X28	Y28	Z28	X29	Y29	Z29	X30	Y30	Z30	X31	Y31	Z31	X32	Y32	Z32	X33	Y33	Z33	X34	Y34	Z34	X35	Y35	Z35	X36	Y36	Z36	X37	Y37	Z37	X38	Y38	Z38	X39	Y39	Z39	X40	Y40	Z40	X41	Y41	Z41	X42	Y42	Z42	X43	Y43	Z43	X44	Y44	Z44	X45	Y45	Z45	X46	Y46	Z46	X47	Y47	Z47	X48	Y48	Z48	X49	Y49	Z49	X50	Y50	Z50	X51	Y51	Z51	

320	1.3292	131.28	1259.7	313.98	14.724	1470.8	482.69	-19.225	1459.7	133.02	47.33	1782.5	297.53	84.228	1025.9	453.28	102.52	1022.1	197.13	-110.44	1042.1	346.81	-105.38	1040.1	267.25	8.1826	955.9	497.49	17.688	942.96	140.91	-2.1517	1100.8	477.2	25.294	1088.4	155.2	-119.51	1006.3	312.25	-71.68	723.08	477.49	-39.732	629.41	448.63	-106.95	643.81	454.67	-0.53187	709.81	467.87	-131.75	530.41	437.16	-107.99	534.32	311.42	-291.67	359.38	421.01	-274.55	273.37	396.21	-335.58	298.49	400.67	-231.66	334.1	415.33	-381.86	172.13	367.75	-358.71	172.52	284.67	-454.71	164.88	314.43	-459.41	134.06	283.2	-464.16	133.16	348.03	-316.32	43.009	398	-283.87	42.464	277.36	-223.52	41.809	327.58	152.66	707.99	169.24	217.38	648.69	235.65	159.02	619.39	190.78	203.08	739.66	210.84	175.4	530.53	208.61	192.5	545.22	329.9	206.08	300.48	220.74	287.48	264.13	224.5	224.94	231.16	239.81	265.12	330.74	212.55	321.56	113.08	240.08	321.77	140.87	328.56	268.21	57.927	288.58	280.95	36.056	323.57	283.43	32.934	261.56	450.16	91.181	226.58	455.54	116.15	341.99	514.44	158.34	286.98	-54.484	1518.7	311.06	-111.71	1243.8	318.54
321	1.3333	137.22	1260.3	313.85	20.132	1471.3	482.37	-13.565	1459.9	132.67	52.794	1782.9	297.1	90.307	1026.2	453.19	109	1022.6	197.17	-104.02	1042.3	346.32	-99.021	1040.4	266.73	14.246	956.04	497.14	24.369	943.43	140.65	3.851	1101.1	476.99	31.833	1088.9	155.02	-113.21	1006.6	311.74	-64.92	722.97	477.6	-32.567	629.3	449.19	-99.841	643.5	454.95	6.3068	709.89	468.34	-124.38	530.12	437.79	-99.97	533.6	312.18	-286.13	360.9	421.53	-269.97	274.64	396.82	-330.73	300.51	401.1	-226.39	334.86	415.96	-378.34	174.71	368.27	-355.06	174.71	285.26	-450.89	169.04	314.89	-456.22	138.46	283.47	-461.12	137.36	348.29	-315.59	43.62	398.04	-283.12	42.895	277.44	-223.23	41.732	327.53	158.07	707.83	169.17	222.44	648.23	235.65	163.97	619.23	190.76	208.69	739.26	210.74	180.04	530.34	208.67	196.5	544.91	330.03	209.55	300.2	220.91	290.72	263.36	225.02	227.94	230.76	240.05	268.8	330.12	212.97	323.62	112.3	240.59	323.77	139.77	329.03	269.43	58.616	288.88	281.61	36.234	323.73	284.07	33.401	261.73	451.71	88.824	227.12	457.48	113.1	342.59	517.04	154.69	287.79	-49.022	1518.9	310.66	-105.68	1243.9	318.25
322	1.3375	143.18	1260.9	313.73	25.527	1471.8	482.06	-7.8829	1460.1	132.32	58.242	1783.3	296.66	96.378	1026.6	453.1	115.45	1023.2	197.22	-97.599	1042.6	345.81	-92.676	1040.8	266.21	20.328	956.21	496.77	31.016	943.95	140.39	9.8461	1101.4	476.78	38.377	1089.3	154.82	-106.92	1007	311.22	-58.035	722.83	477.71	-25.235	629.18	449.78	-92.572	643.14	455.25	13.276	709.97	468.85	-116.81	529.79	438.48	-91.717	532.81	313.02	-280.38	362.43	422.07	-265.2	275.94	397.47	-325.66	302.56	401.55	-220.93	335.64	416.65	-374.62	177.34	368.84	-351.22	176.95	285.88	-446.81	173.32	315.39	-452.79	143	283.77	-457.86	141.71	348.6	-314.81	44.308	398.09	-282.31	43.384	277.52	-222.92	41.647	327.48	163.49	707.74	169.09	227.49	647.86	235.65	168.93	619.15	190.73	214.28	738.95	210.65	184.68	530.22	208.71	200.52	544.68	330.14	212.99	299.97	221.08	293.92	262.66	225.51	230.9	230.43	240.28	272.45	329.54	213.37	325.65	111.59	241.09	325.74	138.74	329.47	270.63	59.31	289.17	282.27	36.449	323.88	284.7	33.894	261.89	453.22	86.522	227.62	459.37	110.12	343.14	519.59	151.07	288.56	-43.554	1519.2	310.26	-99.635	1244.1	317.95
323	1.3417	149.14	1261.5	313.63	30.909	1472.3	481.75	-2.1786	1460.4	131.97	63.675	1783.8	296.23	102.44	1027	452.99	121.87	1023.7	197.25	-91.198	1043	345.32	-86.353	1041.2	265.67	26.425	956.39	496.38	37.617	944.52	140.11	15.831	1101.8	476.56	44.915	1089.8	154.61	-100.65	1007.5	310.68	-51.03	722.67	477.84	-17.736	629.04	450.42	-85.14	642.74	455.58	20.373	710.07	469.38	-109.03	529.43	439.21	-83.229	531.95	313.93	-274.42	363.98	422.64	-260.23	277.27	398.17	-320.38	304.64	402.03	-215.26	336.43	417.41	-370.68	180.02	369.45	-347.19	179.23	286.55	-442.45	177.71	315.94	-449.1	147.69	284.13	-454.34	146.2	348.96	-313.96	45.079	398.15	-281.45	43.941	277.61	-222.6	41.548	327.42	168.91	707.72	168.99	232.54	647.59	235.66	173.92	619.15	190.68	219.84	738.73	210.57	189.33	530.16	208.73	204.58	544.53	330.24	216.39	299.81	221.24	297.08	262	225.97	233.84	230.17	240.49	276.05	329.02	213.74	327.62	110.94	241.57	327.67	137.78	329.89	271.8	60.002	289.43	282.9	36.697	324.01	285.32	34.404	262.05	454.67	84.279	228.09	461.22	107.22	343.65	522.09	147.49	289.28	-38.081	1519.5	309.87	-93.589	1244.3	317.63
324	1.3458	155.09	1262.1	313.53	36.278	1472.9	481.45	3.5463	1460.7	131.62	69.09	1784.3	295.79	108.49	1027.4	452.87	128.26	1024.3	197.27	-84.825	1043.4	344.82	-80.06	1041.7	265.14	32.538	956.58	495.98	44.16	945.14	139.82	21.803	1102.2	476.33	51.436	1090.4	154.4	-94.407	1007.9	310.15	-43.908	722.47	477.99	-10.075	628.89	451.1	-77.551	642.29	455.94	27.594	710.17	469.96	-101.05	529.03	440.01	-74.513	531.02	314.92	-268.24	365.54	423.25	-255.07	278.61	398.93	-314.89	306.75	402.55	-209.4	337.22	418.22	-366.52	182.74	370.13	-342.95	181.55	287.27	-437.8	182.2	316.57	-445.14	152.53	284.54	-450.57	150.83	349.37	-313.06	45.939	398.22	-280.52	44.572	277.72	-222.27	41.434	327.36	174.33	707.79	168.88	237.6	647.42	235.67	178.92	619.24	190.62	225.38	738.61	210.47	193.98	530.17	208.72	208.7	544.46	330.3	219.76	299.72	221.38	300.19	261.41	226.4	236.74	229.98	240.67	279.62	328.55	214.08	329.54	110.35	242.01	329.57	136.89	330.28	272.93	60.682	289.68	283.52	36.971	324.12	285.94	34.921	262.19	456.08	82.094	228.52	463.02	104.39	344.11	524.54	143.96	289.95	-32.602	1519.9	309.47	-87.543	1244.6	317.31
325	1.35	161.04	1262.8	313.45	41.635	1473.5	481.16	9.29	1461	131.27	74.488	1784.9	295.35	114.51	1027.9	452.72	134.61	1025	197.27	-78.487	1043.8	344.35	-73.803	1042.2	264.62	38.665	956.79	495.57	50.636	945.83	139.53	27.76	1102.6	476.09	57.929	1091	154.17	-88.191	1008.5	309.62	-36.675	722.25	478.15	-2.2584	628.73	451.83	-69.809	641.8	456.34	34.933	710.28	470.58	-92.884	528.6	440.86	-65.576	530.02	315.98	-261.84	367.11	423.89	-249.7	279.98	399.75	-309.17	308.87	403.1	-203.33	338.03	419.1	-362.14	185.51	370.88	-338.49	183.91	288.05	-432.86	186.79	317.27	-440.9	157.51	285.03	-446.52	155.61	349.85	-312.08	46.894	398.31	-279.52	45.285	277.85	-221.92	41.3	327.31	179.74	707.94	168.75	242.67	647.35	235.67	183.95	619.42	190.55	230.89	738.58	210.37	198.64	530.25	208.69	212.88	544.48	330.33	223.1	299.69	221.49	303.27	260.87	226.79	239.61	229.87	240.82	283.16	328.14	214.38	331.41	109.82	242.43	331.42	136.09	330.64	274.02	61.345	289.91	284.12	37.268	324.22	286.54	35.438	262.31	457.43	79.97	228.92	464.76	101.65	344.54	526.91	140.48	290.58	-27.117	1520.3	309.07	-81.504	1244.9	316.97
326	1.3542	166.97	1263.5	313.38	46.981	1474.1	480.87	15.051	1461.4	130.93	79.869	1785.4	294.91	120.52	1028.3	452.56	140.9	1025.7	197.25	-72.19	1044.3	343.89	-67.587	1042.8	264.1	44.805	957	495.14	57.036	946.56	139.21	33.698	1103	475.85	64.383	1091.6	153.94	-82.009	1009.1	309.09	-29.335	721.99	478.33	5.7072	628.56	452.6	-61.921	641.26	456.78	42.383	710.4	471.23	-84.528	528.14	441.76	-56.426	528.96	317.11	-255.22	368.69	424.56	-244.12	281.36	400.62	-303.23	311.01	403.69	-197.06	338.84	420.04	-357.51	188.31	371.69	-333.82	186.31	288.88	-427.6	191.47	318.05	-436.37	162.62	285.59	-442.18	160.51	350.4	-311.03	47.949	398.42	-278.45	46.088	277.99	-221.56	41.145	327.25	185.14	708.18	168.6	247.74	647.39	235.64	189	619.68	190.46	236.39	738.66	210.25	203.3	530.4	208.62	217.13	544.59	330.32	226.41	299.72	221.58	306.31	260.38	227.14	242.44	229.83	240.93	286.67	327.79	214.64	333.22	109.35	242.81	333.23	135.35	330.96	275.06	61.984	290.11	284.69	37.582	324.31	287.12	35.949	262.43	458.72	77.906	229.29	466.44	99.002	344.93	529.2	137.06	291.16	-21.628	1520.7	308.67	-75.476	1245.2	316.63
